<?xml version="1.0" encoding="UTF-8"?><svg xmlns="http://www.w3.org/2000/svg" xmlns:xlink="http://www.w3.org/1999/xlink" viewBox="0 0 750 500"><defs><style>.f{fill:url(#e);}.g{fill:url(#d);}.h,.i,.j,.k,.l,.m,.n,.o,.p,.q,.r,.s,.t,.u,.v,.w,.x,.y,.a`,.aa{fill:none;}.i,.j,.q,.y,.ab,.a`{stroke-linejoin:round;}.i,.j,.ab{stroke:#adbbf9;}.ac{fill:#f49c8e;}.ad{fill:#f7471e;}.ae{fill:#e3eafc;}.af{fill:#e88872;}.ag{fill:#ef977f;}.ah,.ab{fill:#fff;}.ai{fill:#f0f1ff;}.aj,.ak{fill:#ffcbbb;}.al{fill:#ffcbbd;}.am{fill:#e4e9f9;}.an{fill:#849cf4;}.ao{fill:#c2cfef;}.ap{fill:#adbbf9;}.aq{fill:#e23917;}.ar{fill:#d3dbf4;}.as{fill:#14122d;}.at{fill:#212237;}.au{fill:#0e32ae;}.av{fill:#18277a;}.aw{fill:#0d219b;}.ax{fill:#28364c;}.ay{fill:#4a1a1a;}.j{stroke-dasharray:0 0 3.5 3.5;}.k,.l,.m,.n,.o,.p,.r,.s,.t,.u,.v,.w,.x,.aa{stroke-miterlimit:10;}.k,.o,.y{stroke:#28364c;}.k,.q,.y{stroke-linecap:round;}.k,.q,.y,.a`,.aa{stroke-width:.5px;}.l{stroke:#121649;}.l,.m,.n,.o,.p{stroke-width:.75px;}.m{stroke:#b22b19;}.n{stroke:#525bce;}.p{stroke:#5565aa;}.q{stroke:#212237;}.r{stroke:#0e32ae;}.s{stroke:#849cf4;}.t{stroke:#fff;}.u{stroke:#ef977f;}.v{stroke:#4643bf;}.w{stroke:#d3dbf4;}.x,.aa{stroke:#f7a794;}.ak{fill-rule:evenodd;}.b`{clip-path:url(#c);}.a`{stroke:#e88872;}</style><clipPath id="c"><rect class="h" x="277.42" y="97.89" width="195.17" height="350.13" rx="9.83" ry="9.83"/></clipPath><linearGradient id="d" x1="223.08" y1="404.75" x2="515.78" y2="112.05" gradientTransform="matrix(1, 0, 0, 1, 0, 0)" gradientUnits="userSpaceOnUse"><stop offset=".27" stop-color="#fff" stop-opacity=".1"/><stop offset="1" stop-color="#fff" stop-opacity=".3"/></linearGradient><linearGradient id="e" x1="272.55" y1="398.63" x2="553.02" y2="118.16" xlink:href="#d"/></defs><g id="a"><rect class="ah" width="750" height="500"/></g><g id="b"><g><g><path class="j" d="M302.18,376.1c-5.76-19.9-22.24-35.2-43.5-35.72-12.36-.3-24.35,5-34.88,11.05-14.21,8.16-30.96,18.01-47.97,15.54-10.89-1.59-23.79-7.7-26.35-20.33-2.7-13.36,8.09-22.53,19.63-27.9,9.89-4.61,23.76-15.62,28.21-26.16,17.62-41.81-31.65-89.53-17.75-137.18,14.55-49.87,81.94-58.3,115.81-24.44,3.25,3.25,6.28,6.71,9.05,10.38,6.91,9.18,10.98,21.68,20.59,28.57,12.44,8.92,28.56,6.06,41.97,.77,25.61-10.12,32.39-16.8,57.43-27.7,18.01-7.84,40.2-14.83,60.43-7.87,14.5,4.99,30.52,13.97,38.63,26.96,15.08,24.16,8.31,50.19,32.15,84.55,10.8,15.57,27.97,19.93,41.65,31.18,35.46,29.16,23.61,90.64-15.07,111.67-31.76,17.27-70.86,13.33-105.3,8.9-2.64-.34-5.28-.7-7.91-1.09"/><path class="am" d="M553.61,149.47c2.98-3.4,5.63-7.18,7.83-11.36,2.2-4.17,3.84-8.49,4.97-12.87l-11.82-4.19c.95-4.08,1.31-8.22,1.14-12.32l12.41-1.93c-.61-9.23-3.38-18.21-8.08-26.18l-11.34,5.4c-2.17-3.47-4.8-6.69-7.89-9.53l7.4-10.13c-3.4-2.98-7.18-5.63-11.36-7.83-4.17-2.2-8.49-3.84-12.87-4.97l-4.19,11.82c-4.08-.95-8.22-1.31-12.32-1.14l-1.93-12.41c-9.23,.61-18.21,3.38-26.18,8.08l5.4,11.34c-3.47,2.17-6.69,4.8-9.53,7.89l-10.13-7.4c-2.98,3.4-5.63,7.18-7.83,11.36-2.2,4.17-3.84,8.49-4.97,12.87l11.82,4.19c-.95,4.08-1.31,8.22-1.14,12.32l-12.41,1.93c.61,9.23,3.38,18.21,8.08,26.18l11.34-5.4c2.17,3.47,4.8,6.69,7.89,9.53l-7.4,10.13c3.4,2.98,7.18,5.63,11.36,7.83,4.17,2.2,8.49,3.84,12.87,4.97l4.19-11.82c4.08,.95,8.22,1.31,12.32,1.14l1.93,12.41c9.23-.61,18.21-3.38,26.18-8.08l-5.4-11.34c3.47-2.17,6.69-4.8,9.53-7.89l10.13,7.4Zm-57.98-12.84c-14.37-7.59-19.86-25.39-12.28-39.75,7.59-14.37,25.39-19.86,39.75-12.28,14.37,7.59,19.86,25.39,12.28,39.75-7.59,14.37-25.39,19.86-39.75,12.28Zm3.98-7.53c-10.21-5.39-14.11-18.04-8.72-28.25,5.39-10.21,18.04-14.11,28.25-8.72,10.21,5.39,14.11,18.04,8.72,28.25-5.39,10.21-18.04,14.11-28.25,8.72Z"/><path class="am" d="M285,177.93c1.63-2.28,3.02-4.77,4.12-7.48,1.1-2.71,1.84-5.47,2.27-8.24l-7.54-1.85c.33-2.57,.3-5.15-.06-7.66l7.53-1.95c-.94-5.65-3.21-11.01-6.59-15.63l-6.65,4.03c-1.55-2.01-3.37-3.82-5.45-5.38l3.94-6.7c-2.28-1.63-4.77-3.02-7.48-4.12-2.71-1.1-5.47-1.84-8.24-2.27l-1.85,7.54c-2.57-.33-5.15-.3-7.66,.06l-1.95-7.53c-5.65,.94-11.01,3.21-15.63,6.59l4.03,6.65c-2.01,1.55-3.82,3.37-5.38,5.45l-6.7-3.94c-1.63,2.28-3.02,4.77-4.12,7.48-1.1,2.71-1.84,5.47-2.27,8.24l7.54,1.85c-.33,2.57-.3,5.15,.06,7.66l-7.53,1.95c.94,5.65,3.21,11.01,6.59,15.63l6.65-4.03c1.55,2.01,3.37,3.82,5.45,5.38l-3.94,6.7c2.28,1.63,4.77,3.02,7.48,4.12,2.71,1.1,5.47,1.84,8.24,2.27l1.85-7.54c2.57,.33,5.15,.3,7.66-.06l1.95,7.53c5.65-.94,11.01-3.21,15.63-6.59l-4.03-6.65c2.01-1.55,3.82-3.37,5.38-5.45l6.7,3.94Zm-36.51-4.34c-9.32-3.79-13.8-14.42-10.01-23.74,3.79-9.32,14.42-13.8,23.74-10.01,9.32,3.79,13.8,14.42,10.01,23.74-3.79,9.32-14.42,13.8-23.74,10.01Zm1.99-4.88c-6.62-2.69-9.81-10.24-7.12-16.87,2.69-6.62,10.24-9.81,16.87-7.12,6.62,2.69,9.81,10.24,7.12,16.87-2.69,6.62-10.24,9.81-16.87,7.12Z"/><path class="am" d="M314.94,108.57c1.29-1.47,2.44-3.11,3.39-4.92s1.66-3.68,2.15-5.58l-5.12-1.82c.41-1.77,.57-3.57,.49-5.34l5.38-.84c-.26-4-1.47-7.9-3.5-11.35l-4.91,2.34c-.94-1.51-2.08-2.9-3.42-4.13l3.21-4.39c-1.47-1.29-3.11-2.44-4.92-3.39-1.81-.96-3.68-1.66-5.58-2.15l-1.82,5.12c-1.77-.41-3.57-.57-5.34-.49l-.84-5.38c-4,.26-7.9,1.47-11.35,3.5l2.34,4.91c-1.51,.94-2.9,2.08-4.13,3.42l-4.39-3.21c-1.29,1.47-2.44,3.11-3.39,4.92-.96,1.81-1.66,3.68-2.15,5.58l5.12,1.82c-.41,1.77-.57,3.57-.49,5.34l-5.38,.84c.26,4,1.47,7.9,3.5,11.35l4.91-2.34c.94,1.51,2.08,2.9,3.42,4.13l-3.21,4.39c1.47,1.29,3.11,2.44,4.92,3.39,1.81,.96,3.68,1.66,5.58,2.15l1.82-5.12c1.77,.41,3.57,.57,5.34,.49l.84,5.38c4-.26,7.9-1.47,11.35-3.5l-2.34-4.91c1.51-.94,2.9-2.08,4.13-3.42l4.39,3.21Zm-23.46-8.72c-4.48-2.37-6.2-7.92-3.83-12.41,2.37-4.48,7.92-6.2,12.41-3.83,4.48,2.37,6.2,7.92,3.83,12.41-2.37,4.48-7.92,6.2-12.41,3.83Z"/><path class="ab" d="M194.11,188.33c-.03-.67-.09-1.38-.17-2.13-.69-6.21-4.94-5.64-7.59-5.45-2.65,.19-5.94,.29-7.2-2.6-.55-1.26-.53-2.77-.89-4.13-.8-3.01-3.48-4.82-6.04-4.82-2.56,0-4.98,1.46-7.07,3.28-1.09,.94-2.32,2.05-3.61,1.69-.83-.23-1.48-1.02-2-1.86-3.03-4.92-3.01-12.08-6.33-16.71-3.66-5.11-10.51-5.21-15.14-1.5-4.63,3.71-7.29,10.32-8.51,16.99-.39,2.17-.74,4.55-2.07,6.02-1.91,2.11-4.84,1.41-7.39,1.13-2.96-.33-6.12,.15-8.52,2.32-1.96,1.77-3.23,4.87-2.99,7.78h85.54Z"/><path class="ab" d="M365.4,80.77h84.18s-3.37-3.92-7.19-5.26c-4.81-1.68-6.8,3.05-9.84-3.07-1.7-3.43-2.89-7.95-7.37-9.12-7-1.83-8.78,3.95-12.12,2.39-2.93-1.37-2.84-6.87-5.79-11.46-2.89-4.49-9.93-7.25-14.74-4.91-8.78,4.28-7.64,11.08-10.51,13.32-2.84,2.21-9.34-5.58-16.62,2.85-5.01,5.81,0,15.26,0,15.26Z"/><path class="i" d="M453.27,51.85c0,2.04-1.65,3.69-3.69,3.69s-3.69-1.65-3.69-3.69,1.65-3.69,3.69-3.69,3.69,1.65,3.69,3.69Z"/><path class="i" d="M696.7,349.54c0,2.04-1.65,3.69-3.69,3.69s-3.69-1.65-3.69-3.69,1.65-3.69,3.69-3.69,3.69,1.65,3.69,3.69Z"/><path class="i" d="M520.28,196.49c0,2.04-1.65,3.69-3.69,3.69s-3.69-1.65-3.69-3.69,1.65-3.69,3.69-3.69,3.69,1.65,3.69,3.69Z"/><path class="i" d="M63.42,240.29c0,2.04-1.65,3.69-3.69,3.69s-3.69-1.65-3.69-3.69,1.65-3.69,3.69-3.69,3.69,1.65,3.69,3.69Z"/><path class="i" d="M214.11,101.81c0,2.04-1.65,3.69-3.69,3.69s-3.69-1.65-3.69-3.69,1.65-3.69,3.69-3.69,3.69,1.65,3.69,3.69Z"/><path class="i" d="M257.86,85.01c0,1.39-1.12,2.51-2.51,2.51s-2.51-1.12-2.51-2.51,1.12-2.51,2.51-2.51,2.51,1.12,2.51,2.51Z"/><path class="i" d="M666.81,262.76c0,1.39-1.12,2.51-2.51,2.51s-2.51-1.12-2.51-2.51,1.12-2.51,2.51-2.51,2.51,1.12,2.51,2.51Z"/><circle class="i" cx="484.38" cy="179.65" r="2.51"/><path class="i" d="M585.66,116.47c0,1.39-1.12,2.51-2.51,2.51s-2.51-1.12-2.51-2.51,1.12-2.51,2.51-2.51,2.51,1.12,2.51,2.51Z"/><path class="i" d="M580.31,300.42c0,1.39-1.12,2.51-2.51,2.51s-2.51-1.12-2.51-2.51,1.12-2.51,2.51-2.51,2.51,1.12,2.51,2.51Z"/><path class="i" d="M190.6,324.46c0,1.39-1.12,2.51-2.51,2.51s-2.51-1.12-2.51-2.51,1.12-2.51,2.51-2.51,2.51,1.12,2.51,2.51Z"/><path class="i" d="M198.13,209.75c0,1.39-1.12,2.51-2.51,2.51s-2.51-1.12-2.51-2.51,1.12-2.51,2.51-2.51,2.51,1.12,2.51,2.51Z"/><rect class="am" x="677.8" y="221.29" width="5.55" height="5.55" rx="1.09" ry="1.09"/><rect class="am" x="160.67" y="336.88" width="5.55" height="5.55" rx="1.09" ry="1.09"/><rect class="am" x="154.82" y="132.33" width="5.55" height="5.55" rx="1.09" ry="1.09"/><rect class="am" x="582.39" y="87.53" width="10.65" height="10.65" rx="2.1" ry="2.1"/><rect class="am" x="526.24" y="253.6" width="5.55" height="5.55" rx="1.09" ry="1.09"/><path class="ab" d="M454.17,219.31c.03-.48,.07-.99,.14-1.53,.56-4.46,4.05-4.05,6.23-3.91,2.17,.14,4.87,.21,5.91-1.87,.45-.9,.43-1.99,.73-2.96,.66-2.16,2.86-3.46,4.96-3.46,2.1,0,4.08,1.05,5.8,2.35,5.58,4.23,7.18-6.9,9.83-10.12,3.01-3.67,8.61-5.72,12.41-3.06,3.8,2.66,5.99,7.4,6.98,12.19,.32,1.56,.44,3.46,1.7,4.32,3.69,2.52,8.44-2.37,12.9,1.43,1.56,1.33,1.86,4.54,1.66,6.63h-69.26Z"/></g><g><g><path class="ah" d="M178.71,447.91c-12.54-18.91-38.79-66.7-16.03-83.14,12.49-9.03,29.05-.81,37.06,19.1,7.6,18.91,10.51,41.25,13.68,63.77"/><path class="ap" d="M178.97,447.75c-6-9.19-11.4-18.83-15.88-28.85-4.85-10.86-9.31-22.95-8.99-35.03,.29-10.81,6.86-21.88,18.76-22.35,15.03-.59,23.97,15.09,28.26,27.25,6.68,18.96,9.09,39.17,11.88,58.98,.08,.54,.89,.31,.81-.22-2.71-19.26-5.08-38.84-11.31-57.35-4.14-12.29-11.75-27.11-26.09-29.25-10.62-1.59-19.87,6.22-22.26,16.25-2.75,11.54,1.11,24.2,5.27,34.92,4.9,12.63,11.47,24.72,19,35.97,.22,.33,.75,.02,.53-.31h0Z"/></g><line class="ab" x1="169.12" y1="361.93" x2="198.68" y2="447.97"/><g><path class="ah" d="M128.44,447.92c-10.82-13.99-34.46-49.34-14.83-61.5,10.78-6.68,24.06-.6,30.97,14.13,6.56,13.99,9.07,30.52,11.8,47.17"/><path class="ap" d="M128.71,447.77c-5.01-6.6-9.69-13.5-13.67-20.77-4.24-7.75-8.39-16.54-8.58-25.54-.19-8.94,5.75-16.51,14.99-17.27,11.59-.96,19.73,9.4,23.82,18.94,6.07,14.14,8.23,29.64,10.71,44.72,.09,.53,.9,.31,.81-.22-2.43-14.84-4.59-30.05-10.41-44.03-3.91-9.39-11.03-19.28-22.06-20.21-8.23-.69-16.35,4.68-18.16,12.85-1.91,8.61,1.71,17.91,5.36,25.56,4.47,9.39,10.31,18.18,16.71,26.36,.21,.27,.7-.09,.48-.37h0Z"/></g><line class="ab" x1="119.17" y1="384.32" x2="144.67" y2="447.97"/><path class="ab" d="M254.92,447.73c-29.63-53.76-48.78-107.05-24.86-132.37,23.69-25.09,48.48,4.64,54.51,30.98,7.39,32.26,8.46,67.19,8.31,101.39"/><line class="i" x1="238.83" y1="308.82" x2="274.43" y2="447.65"/><g><path class="ah" d="M210.45,447.89c-11.77-28.44-38.25-85.96-19.58-103.75,11.94-11.37,33.51,2.57,44.6,27.42,10.54,23.6,13.7,47.89,20.02,75.99"/><path class="ap" d="M210.75,447.81c-5.59-13.67-11.48-27.2-16.39-41.13-4.93-13.98-9.86-29.12-9.56-44.12,.11-5.51,1.08-11.38,4.41-15.92,3.84-5.22,10.02-7.09,16.21-5.51,7.27,1.86,13.44,7.07,18.29,12.59,6.61,7.52,11.04,16.47,14.58,25.77,8.34,21.94,11.69,45.38,16.8,68.18,.12,.53,.93,.31,.81-.22-4.86-21.73-8.13-44-15.64-65.04-5.62-15.76-14.6-33.78-30.92-40.77-5.25-2.25-11.4-2.82-16.39,.38-4.49,2.88-7.01,7.83-8.11,12.93-1.36,6.34-.9,12.98,.04,19.34,1.18,8.02,3.3,15.88,5.73,23.6,5.4,17.12,12.6,33.57,19.54,50.09,.15,.36,.75,.21,.6-.16h0Z"/></g><g><path class="ah" d="M440.13,447.73c-9.99-114.45,14.32-156.26,40.92-158.13,12.6-.89,49.5,6.37,4.95,158.06"/><path class="ap" d="M440.33,447.73c-2.46-37.68-4.98-76.84,4.74-113.8,4.21-16.02,12.11-36.69,29.37-42.6,6.81-2.33,14.55-1.9,20.32,2.7,10.2,8.14,11.78,23.98,12.17,35.99,.43,13.47-1.03,26.99-3.11,40.28-3.12,20.01-7.82,39.76-13.13,59.3-1.63,6-3.33,11.99-4.98,17.99-.1,.37,.47,.53,.58,.16,6.76-21.71,12.3-43.96,16.43-66.32,2.72-14.71,4.82-29.64,5.04-44.62,.13-9.11-.37-18.47-2.91-27.27-1.5-5.18-3.8-10.34-7.6-14.26-4.89-5.05-11.72-6.87-18.56-5.78-16.7,2.65-26.14,19.7-31.26,34.16-4.81,13.58-7.14,27.98-8.49,42.28-1.98,20.94-1.73,42.07-.49,63.04,.37,6.26,.81,12.52,1.48,18.76,.03,.24,.41,.25,.39,0h0Z"/></g><line class="ab" x1="486.23" y1="289.87" x2="462.74" y2="447.66"/><g><path class="ah" d="M518.75,447.74c8.15-68.02,35.59-107.23,60.38-96.59,20.28,8.7,9.82,46.57-21.78,96.54"/><path class="ap" d="M518.94,447.79c3.07-20.04,6.65-39.88,14.38-58.74,5.13-12.5,12.12-25.97,23.33-34.09,7.59-5.5,18.35-7.5,26.16-1.17,9.12,7.38,6.63,21.96,4.07,31.77-5.82,22.31-18.1,42.37-29.79,61.98-.2,.34,.31,.62,.52,.3,6.79-10.2,12.84-20.99,18.25-31.98,4.22-8.57,8.05-17.4,10.78-26.56,3.04-10.17,6.4-24.75-1.12-33.89-6.03-7.32-16.93-7.78-24.92-3.77-11.44,5.75-18.99,18-24.38,29.12-4.57,9.42-7.99,19.37-10.71,29.47-3.29,12.23-5.84,24.88-6.96,37.5-.02,.22,.35,.27,.38,.05h0Z"/></g><line class="ab" x1="579.13" y1="351.16" x2="538.56" y2="447.7"/><line class="ab" x1="197.33" y1="340.61" x2="233.56" y2="447.97"/><g><path class="ah" d="M521.77,447.87c16.02-33.97,48.34-111.53,24-139.03-13.36-15.1-37.82,3.44-50.79,36.74-12.32,31.62-21.54,64.18-29.18,101.84"/><path class="ap" d="M522.04,448.02c8.39-17.65,15.93-35.77,22.02-54.34,6.27-19.14,12-39.9,10.73-60.24-.78-12.47-6.7-32.69-23.01-30.1-8.83,1.41-16.23,8.35-21.71,14.96-8.04,9.71-13.23,21.05-17.64,32.76-11.77,31.25-20.38,63.55-27.04,96.25-.11,.53,.71,.76,.81,.22,5.69-27.94,12.77-55.6,22.1-82.56,4.35-12.56,8.7-25.36,15.7-36.72,5.28-8.58,12.24-17.32,21.43-21.94,7.13-3.58,14.95-3.15,20.35,3.13,5.07,5.9,7.24,13.77,8.01,21.36,1.97,19.3-3.17,39.26-8.83,57.56-6.3,20.33-14.45,40.07-23.45,59.35-.17,.36,.36,.67,.53,.31h0Z"/></g><line class="ab" x1="538.56" y1="304.1" x2="495.71" y2="447.97"/><g><path class="ah" d="M550.06,447.74c21.12-42.82,39.46-54.15,56.68-50.73,13.39,2.66,15.48,22.44-12.82,50.7"/><path class="ap" d="M550.23,447.84c6.54-11.65,12.45-23.49,21.15-33.76,5.37-6.34,11.8-12.37,19.69-15.38,5.5-2.09,12.74-2.94,18.29-.47,6.18,2.75,7.21,9.79,5.99,15.78-2.71,13.28-12.81,23.88-21.63,33.5-.26,.29,.14,.69,.43,.43,8.99-8.33,17.95-19.37,21.39-31.37,1.68-5.86,1.91-13.31-3.31-17.5-4.55-3.64-11.83-3.53-17.23-2.33-7.85,1.75-14.57,6.76-20.1,12.41-4.46,4.55-8.32,9.68-11.83,14.98-4.92,7.42-9.6,15.33-13.15,23.52-.1,.22,.21,.42,.34,.2h0Z"/></g><line class="ab" x1="605.08" y1="397.3" x2="572.81" y2="447.71"/></g><g><g><rect class="an" x="277.92" y="98.39" width="194.17" height="349.13" rx="9.33" ry="9.33"/><path class="an" d="M462.75,98.89c4.87,0,8.83,3.96,8.83,8.83V438.19c0,4.87-3.96,8.83-8.83,8.83h-175.5c-4.87,0-8.83-3.96-8.83-8.83V107.72c0-4.87,3.96-8.83,8.83-8.83h175.5m0-1h-175.5c-5.43,0-9.83,4.4-9.83,9.83V438.19c0,5.43,4.4,9.83,9.83,9.83h175.5c5.43,0,9.83-4.4,9.83-9.83V107.72c0-5.43-4.4-9.83-9.83-9.83h0Z"/></g><path class="v" d="M383.92,431.96c0,4.92-3.99,8.92-8.92,8.92s-8.92-3.99-8.92-8.92,3.99-8.92,8.92-8.92,8.92,3.99,8.92,8.92Z"/><g class="b`"><g><polygon class="g" points="421.23 59.95 275.18 456.85 317.63 456.85 463.68 59.95 421.23 59.95"/><polygon class="f" points="476.81 59.95 330.76 456.85 348.76 456.85 494.81 59.95 476.81 59.95"/></g></g><rect class="ah" x="278.97" y="130.5" width="192.05" height="284.91"/><g><path class="v" d="M364.02,112.41h27.05c.6,0,1.08,.48,1.08,1.08h0c0,.6-.48,1.08-1.08,1.08h-27.05c-.6,0-1.08-.48-1.08-1.08h0c0-.6,.48-1.08,1.08-1.08Z"/><circle class="v" cx="357.97" cy="113.5" r="1.12"/></g><g><g><rect class="ar" x="292.1" y="240.83" width="82.9" height="83.78"/><g><circle class="t" cx="333.55" cy="270.68" r="17.16" transform="translate(13.18 556.84) rotate(-80.83)"/><ellipse class="t" cx="333.55" cy="270.68" rx="11.82" ry="17.16"/><ellipse class="t" cx="333.55" cy="270.68" rx="4.61" ry="17.16"/><line class="t" x1="316.38" y1="270.68" x2="350.71" y2="270.68"/><path class="t" d="M318.18,278.33c3.28-1.1,8.94-1.82,15.37-1.82s12.08,.72,15.36,1.82"/><path class="t" d="M323.16,284.34c2.95-1.12,6.53-1.78,10.39-1.78s7.34,.64,10.27,1.73"/><path class="t" d="M318.18,263.12c3.28,1.1,8.94,1.82,15.37,1.82s12.08-.72,15.36-1.82"/><path class="t" d="M323.16,257.11c2.95,1.12,6.53,1.78,10.39,1.78s7.34-.64,10.27-1.73"/></g><g><rect class="ae" x="299.15" y="305.2" width="68.8" height="4.43" transform="translate(667.1 614.83) rotate(180)"/><rect class="ae" x="326.83" y="296.96" width="41.12" height="4.43" transform="translate(694.78 598.35) rotate(180)"/><rect class="ae" x="299.15" y="296.96" width="23.01" height="4.43"/><rect class="ae" x="299.15" y="313.44" width="68.8" height="4.43" transform="translate(667.1 631.31) rotate(180)"/></g></g><g><rect class="ai" x="374.91" y="240.83" width="82.9" height="83.78"/><g><rect class="am" x="381.97" y="255.76" width="68.8" height="4.43" transform="translate(832.73 515.96) rotate(180)"/><rect class="am" x="381.97" y="264" width="68.8" height="4.43" transform="translate(832.73 532.44) rotate(180)"/><rect class="am" x="381.97" y="272.24" width="21.42" height="4.43" transform="translate(785.36 548.91) rotate(180)"/><rect class="am" x="409.12" y="272.24" width="41.55" height="4.43" transform="translate(859.79 548.91) rotate(180)"/><rect class="am" x="381.97" y="280.48" width="68.8" height="4.43" transform="translate(832.73 565.39) rotate(180)"/><rect class="am" x="381.97" y="288.72" width="68.8" height="4.43" transform="translate(832.73 581.87) rotate(180)"/><rect class="am" x="381.97" y="296.96" width="68.8" height="4.43" transform="translate(832.73 598.35) rotate(180)"/><rect class="am" x="430.9" y="305.2" width="19.87" height="4.43" transform="translate(881.67 614.83) rotate(180)"/><rect class="am" x="381.97" y="305.2" width="44.19" height="4.43" transform="translate(808.12 614.83) rotate(180)"/><rect class="am" x="381.97" y="313.44" width="68.8" height="4.43" transform="translate(832.73 631.31) rotate(180)"/><rect class="am" x="432.54" y="247.52" width="18.22" height="4.43" transform="translate(883.31 499.48) rotate(180)"/><rect class="am" x="381.97" y="247.52" width="45.91" height="4.43"/></g></g><g><rect class="ai" x="292.1" y="324.61" width="82.9" height="83.78"/><g><rect class="am" x="299.15" y="389" width="68.8" height="4.43"/><rect class="am" x="299.15" y="380.76" width="68.8" height="4.43"/><rect class="am" x="350.25" y="372.52" width="17.69" height="4.43"/><rect class="am" x="299.24" y="372.52" width="45.28" height="4.43"/><rect class="am" x="299.15" y="364.28" width="68.8" height="4.43"/><rect class="am" x="299.15" y="356.04" width="68.8" height="4.43"/><rect class="am" x="299.15" y="347.8" width="68.8" height="4.43"/><rect class="am" x="299.15" y="339.56" width="31.97" height="4.43"/><rect class="am" x="335.86" y="339.56" width="32.09" height="4.43"/><rect class="am" x="299.15" y="331.32" width="68.8" height="4.43"/><rect class="am" x="299.15" y="397.24" width="32.06" height="4.43"/><rect class="am" x="335.88" y="397.24" width="32.06" height="4.43" transform="translate(703.83 798.9) rotate(180)"/></g></g><g><rect class="ar" x="374.91" y="324.61" width="82.9" height="83.78"/><g><g><polygon class="ao" points="433.23 382.27 399.97 381.87 396.25 357.97 436.44 357.9 433.23 382.27"/><polygon class="ao" points="436.44 357.9 396.25 357.97 416.31 341.42 436.44 357.9"/><rect class="ah" x="402.35" y="355.58" width="27.43" height="23.17" transform="translate(-.65 .73) rotate(-.1)"/><polygon class="ae" points="396.25 357.97 396.29 384.1 416.37 371.92 396.25 357.97"/><polygon class="ae" points="436.44 357.9 436.48 384.03 416.37 371.92 436.44 357.9"/><polygon class="ae" points="436.48 384.03 396.29 384.1 416.36 367.55 436.48 384.03"/><polyline class="w" points="396.29 384.1 416.36 367.55 436.48 384.03"/><line class="w" x1="419.25" y1="369.91" x2="436.44" y2="357.9"/></g><line class="w" x1="413.48" y1="369.92" x2="396.25" y2="357.97"/></g><rect class="ae" x="400.33" y="394.09" width="32.06" height="4.43" transform="translate(832.73 792.6) rotate(180)"/></g><g><rect class="ar" x="292.1" y="149.81" width="165.81" height="83.59"/><g><rect class="ae" x="372.66" y="161.83" width="78.1" height="5.78" transform="translate(823.43 329.45) rotate(180)"/><rect class="ae" x="372.66" y="172.59" width="78.1" height="5.78" transform="translate(823.43 350.95) rotate(180)"/><rect class="ae" x="372.66" y="183.34" width="78.1" height="5.78" transform="translate(823.43 372.46) rotate(180)"/><rect class="ae" x="372.66" y="194.09" width="78.1" height="5.78" transform="translate(823.43 393.97) rotate(180)"/><rect class="ae" x="372.66" y="215.6" width="78.1" height="5.78" transform="translate(823.43 436.98) rotate(180)"/><rect class="ae" x="404.09" y="204.84" width="46.68" height="5.78" transform="translate(854.86 415.47) rotate(180)"/><rect class="ae" x="372.66" y="204.84" width="26.12" height="5.78"/></g><g><rect class="ae" x="301.6" y="162.07" width="59.08" height="59.08"/><polygon class="ah" points="336.62 180.54 354.6 211.28 318.64 211.28 336.62 180.54"/><polygon class="ah" points="318.4 190.64 322.24 198.04 315.36 211.28 307.68 211.28 318.4 190.64"/><path class="ah" d="M309.2,178.76c0,1.84,1.49,3.33,3.33,3.33s3.33-1.49,3.33-3.33-1.49-3.33-3.33-3.33-3.33,1.49-3.33,3.33Z"/></g></g><path class="ar" d="M328.24,142.98h93.52c1.47,0,2.66-1.19,2.66-2.66h0c0-1.47-1.19-2.66-2.66-2.66h-93.52c-1.47,0-2.66,1.19-2.66,2.66h0c0,1.47,1.19,2.66,2.66,2.66Z"/><line class="t" x1="375" y1="240.83" x2="375" y2="408.38"/><line class="t" x1="292.1" y1="324.61" x2="457.9" y2="324.61"/></g></g><line class="s" x1="96.23" y1="448.02" x2="653.77" y2="448.02"/><g><g><g><g><path class="al" d="M623.05,420.18l1.74,28.54-.93,8.98-34.03-.18c-.86,0-1.55-.7-1.55-1.56h0c0-.64,.4-1.22,1-1.45l15.18-6.98-3.43-29.7"/><path class="ad" d="M586.74,457.14c.36-1.13,1.02-2.39,1.69-2.68l16.1-6.93c8.87,3.6,20.36,.85,20.36,.85l.88,12.12c0,.4-.33,.72-.73,.72l-38.02-.2c-.79,0-.28-3.84-.27-3.88Z"/><path class="m" d="M601.04,448.22c.9,1.18,1.66,2.46,2.27,3.81"/><path class="m" d="M599.02,449.44c.93,1.29,1.31,2.04,1.87,3.24"/><path class="m" d="M597.3,450.32c.63,.85,1.26,2.03,1.75,2.97"/></g><line class="m" x1="625.55" y1="458.6" x2="586.58" y2="458.4"/><path class="m" d="M625.2,452.8s-9.03,.06-9.84,5.74"/><path class="m" d="M591.73,453.04s2.6,3.7,3.11,5.4"/></g><path class="au" d="M596.32,310.5s-4.89,40.17-3.02,69.34c1.87,29.17,4.57,63.02,4.57,63.02h29.58s-3.83-50.09-3.41-73.53c.47-25.98,8.41-58.82,8.41-58.82"/><path class="l" d="M621.45,442.85s-3.83-50.09-3.41-73.53c.47-25.98,8.41-58.82,8.41-58.82"/><g><g><path class="al" d="M661.91,381.96l27.43,8.82,8.28,3.6-10.46,32.38c-.26,.82-1.14,1.27-1.96,1h0c-.61-.2-1.04-.75-1.08-1.4l-2.06-16.58-28.48-9.26"/><path class="ad" d="M685.86,429.59c-.97-.68-1.97-1.7-2.04-2.42l-1.74-17.44c6.11-7.37,6.96-19.15,6.96-19.15l11.82,2.83c.38,.12,.59,.53,.47,.91l-11.69,36.18c-.24,.75-3.74-.89-3.78-.92Z"/><path class="m" d="M681.69,413.26c1.39-.5,2.85-.84,4.32-1.01"/><path class="m" d="M682.23,415.56c1.52-.5,2.34-.63,3.65-.8"/><path class="m" d="M682.56,417.46c1-.35,2.32-.58,3.36-.77"/></g><line class="m" x1="699" y1="393.04" x2="687.01" y2="430.13"/><path class="m" d="M693.36,391.62s-2.67,8.62,2.5,11.11"/><path class="m" d="M683.46,423.6s4.31-1.36,6.09-1.33"/></g><path class="au" d="M644.47,311.79s2.66,11.42,2.66,16.32c0,3.6-1.43,6.05-2.19,8.68-.33,1.13-.51,2.28-.56,3.45-.23,5.25-.53,19.99,2.76,27,4.04,8.61,37.68,20.04,37.68,20.04l-8.53,25.69s-51.5-12.94-57.92-28.7c-8.96-21.99-6.4-72.47-6.4-72.47"/><path class="l" d="M624.58,391.62c-2.97-2.35-5.18-4.82-6.21-7.36-8.96-21.99-6.4-72.47-6.4-72.47"/><path class="l" d="M640.11,310.84s3.02,14.37,3.02,19.27c0,3.67-1.49,6.25-2.23,8.83-.3,1.04-.48,2.11-.55,3.2-.32,5.19-.89,20.22,2.79,27.11,5.09,9.54,40.33,22.1,40.33,22.1"/><path class="l" d="M607.76,314.6s-.45,10.37,1,11.61c1.45,1.24,2.86,2.07,2.86,2.07"/><line class="l" x1="680.57" y1="385.76" x2="671.18" y2="411.58"/><line class="l" x1="597.47" y1="437.77" x2="627.07" y2="437.77"/><path class="l" d="M632,312.59s1.84,6.62,10.06,8.57"/><path class="l" d="M595.37,320s7.42-2.17,9.7-7.41"/></g><g><path class="aj" d="M613.26,232.48l-1.33,9.31s-.12,2.58,4.9,4.37c6.07,2.18,9.76-2.5,9.76-2.5l-.4-9.42"/><path class="aj" d="M612.52,220.14s-6.45,10.78-1.97,15.09c4.06,3.91,12.99,1.46,13.81,.09,.81-1.37,5.9-13.41,3.12-15.07-4.95-2.95-12.19-4.75-14.95-.11Z"/><path class="u" d="M612.59,237.24s4.37,1.4,8.41-.36"/><path class="ay" d="M611.44,213.14c.85-6.37,8.57-1.6,11.71,1.3,.94,.87,6.45,2.49,7.35,3.41s1.62,2.05,1.86,3.32c.21,1.11,.03,2.25-.24,3.34-.48,1.97-1.26,3.85-2.03,5.72-.84,2.04-2.35,6.1-5.26,5.68-.56-.08-1.18-.19-1.55-.62-.37-.43-.38-1.05-.32-1.61,.1-.91,.38-1.8,.8-2.61-.6,.16-1.22,.53-1.8,.3-.19-.08-.28-.26-.39-.44-.38-.62,.08-4.74,2-6.36-2.77-1.31-4.94-1.43-7.76-2.62-2.27-.96-3.25-2.12-4.06-3.21-1.16-1.56-.55-3.67-.29-5.6Z"/><path class="aj" d="M623.08,230.69c.71-.99,1.79-2.13,2.83-1.09,.37,.37,.47,.98,.51,1.57,.13,1.94-1.84,4.42-3.55,3.74-.84-.33-1.07-1.47-1.22-2.41"/><path class="aa" d="M613.95,224.9s-2.79,2.74-2.79,3.67c0,.93,2.09,1.51,2.09,1.51"/><path class="ah" d="M610.1,230.41l5,1.87s-1.16,2.96-4.16,1.6c-2.14-.97-.84-3.47-.84-3.47Z"/><path class="at" d="M611.83,223.37c-.15,.22-.29,.44-.42,.68-.25,.45,.45,.85,.68,.4,.14-.26,.26-.53,.37-.81,.15-.39-.42-.56-.63-.26h0Z"/><path class="q" d="M613.98,222.42s-.62-1.39-2.11-.74"/><path class="at" d="M618.07,226.37c-.14,.23-.26,.46-.38,.7-.22,.46,.48,.86,.68,.4,.12-.27,.23-.55,.33-.83,.12-.38-.43-.59-.63-.26h0Z"/><path class="q" d="M618.27,224.07s1.52-.17,2.62,1.83"/></g><g><g><path class="al" d="M591.64,191.74c-.41-5.41,.32-20.72-.63-21.12-.95-.4-1.34,4.78-2.06,4.31-.72-.48-.66-8.5-1.71-8.65-1.43-.2-1.05,8.01-1.05,8.01,0,0-.86-8.98-2.16-8.8-.91,.13-.57,7.01-.77,9.66-.15-2.9-1-8.29-1.95-8.13-.94,.15-.76,5.57-.84,9.17-.15-2.25-.61-7.17-1.49-7.07-.88,.1-1.15,12.89-1.16,23.67"/><path class="al" d="M590.28,245.89s-5.81-12.16-9.44-26.33c-3.63-14.18-2.99-32.61-2.99-32.61l13.64,2.3s.62,25.73,16.15,51.27"/><path class="x" d="M580.66,176.8c1.12,1.71,2.61,3.72,2.54,7.06"/><path class="x" d="M588.83,176.15c-1.31,1.17-2.73,4.32-2.05,5.94"/></g><path class="ap" d="M635.54,189.13c1.99-2.34,3.76-4.94,5.21-7.8,1.46-2.86,2.53-5.81,3.25-8.8l-8.08-2.74c.6-2.79,.81-5.61,.66-8.39l8.42-1.43c-.5-6.27-2.48-12.36-5.75-17.73l-7.66,3.78c-1.51-2.34-3.33-4.5-5.46-6.4l4.94-6.96c-2.34-1.99-4.94-3.76-7.8-5.21-2.86-1.46-5.81-2.53-8.8-3.25l-2.74,8.08c-2.79-.6-5.61-.81-8.39-.66l-1.43-8.42c-6.27,.5-12.36,2.48-17.73,5.75l3.78,7.66c-2.34,1.51-4.5,3.33-6.4,5.46l-6.96-4.94c-1.99,2.34-3.76,4.94-5.21,7.8-1.46,2.86-2.53,5.81-3.25,8.8l8.08,2.74c-.6,2.79-.81,5.61-.66,8.39l-8.42,1.43c.5,6.27,2.48,12.36,5.75,17.73l7.66-3.78c1.51,2.34,3.33,4.5,5.46,6.4l-4.94,6.96c2.34,1.99,4.94,3.76,7.8,5.21,2.86,1.46,5.81,2.53,8.8,3.25l2.74-8.08c2.79,.6,5.61,.81,8.39,.66l1.43,8.42c6.27-.5,12.36-2.48,17.73-5.75l-3.78-7.66c2.34-1.51,4.5-3.33,6.4-5.46l6.96,4.94Zm-37.45-12.31c-7.56-3.86-10.56-13.11-6.71-20.67,3.86-7.56,13.11-10.56,20.67-6.71,7.56,3.86,10.56,13.11,6.71,20.67-3.86,7.56-13.11,10.56-20.67,6.71Z"/><path class="ad" d="M612.13,240.47c-4.06,0-10.39-12.98-10.39-12.98l-16.3,12.12s5.21,16.21,14.04,26.48"/><line class="m" x1="603.1" y1="230.08" x2="586.49" y2="242.56"/><g><path class="al" d="M654.28,185.11c-.87-5.95-3.14-19.97-4.14-20.2-1-.23-1.42,3.11-1.01,4.47-.64-2.55-2.4-8.12-3.46-8.08-1.44,.05,.37,8.07,.37,8.07,0,0-2.42-8.69-3.66-8.28-.88,.29,.67,7,.93,9.65-.65-2.82-2.43-7.98-3.34-7.66-.9,.32,.23,5.62,.78,9.18-.55-2.19-1.85-6.95-2.7-6.7-.85,.25,1.36,11.25,2.68,22.22"/><path class="al" d="M651.47,241.06s3.61-12.98,4.73-27.57c1.12-14.59-2.7-32.63-2.7-32.63l-13.04,4.63s3.85,25.44-7.02,53.3"/></g><path class="ad" d="M612.13,240.47s.79,2.28,5.29,2.51c5.79,.3,9.01-2.51,9.01-2.51,0,0,17.26,2.29,18.66,21.15,1.61,21.72,2.05,52.23,2.05,52.23h-53.83s.36-34.84,1.49-51.47c1.09-15.93,17.33-21.91,17.33-21.91Z"/><path class="ad" d="M645.04,264c6.49-16.88,8.8-29.76,8.8-29.76l-17.28-8.37s-4.11,11.47-10.13,14.59"/><line class="m" x1="635.16" y1="229.19" x2="653.1" y2="237.77"/><line class="m" x1="593.3" y1="310.87" x2="647.08" y2="310.87"/><path class="m" d="M645.51,262.76s-2.19,4.69-2.42,7.05"/><path class="m" d="M598.78,250.36s-3.27,5.54-3.99,12.02"/><path class="m" d="M610.08,239.61s.92,6.28,7.92,6.28c8.6,0,10.3-6.28,10.3-6.28"/><path class="ag" d="M649.13,169.39c0-.06,.08,.1,.11,.16l.13,.24,.22,.49c.15,.33,.26,.66,.37,1,.21,.68,.37,1.36,.44,2.09-.22-.3-.38-.62-.53-.94-.16-.32-.27-.66-.38-1-.1-.34-.2-.68-.26-1.04l-.09-.53-.02-.27v-.14s0-.17,.02-.06Z"/></g></g><g><g><g><g><path class="al" d="M521.8,418.63l.94,29.62-.96,9.32-35.31-.19c-.89,0-1.61-.73-1.61-1.62h0c0-.67,.42-1.27,1.04-1.5l15.75-7.24-2.38-30.82"/><path class="av" d="M483.26,456.99c.37-1.17,1.06-2.48,1.75-2.78l16.7-7.19c9.21,3.73,21.12,.88,21.12,.88l.91,12.58c0,.42-.34,.75-.76,.75l-39.45-.21c-.82,0-.29-3.98-.28-4.02Z"/><path class="l" d="M498.09,447.73c.94,1.22,1.73,2.55,2.35,3.95"/><path class="l" d="M495.99,448.99c.97,1.34,1.36,2.12,1.94,3.36"/><path class="l" d="M494.21,449.91c.66,.88,1.3,2.11,1.81,3.09"/></g><line class="l" x1="523.53" y1="458.5" x2="483.08" y2="458.29"/><path class="l" d="M523.17,452.49s-9.37,.07-10.21,5.96"/><path class="l" d="M488.43,452.73s2.7,3.83,3.23,5.6"/></g><path class="aw" d="M517.7,302.25s4.3,7.24,5.54,12.63c1.97,8.58,0,17.36,0,17.36l-.09,103.54h-26.22s-5.82-119.32-3.23-134.75"/><path class="l" d="M500.93,435.79s-5.82-119.32-3.23-134.75"/><g><g><path class="al" d="M492.84,406.97l11.91,27.13,2.58,9-32.84,12.99c-.83,.33-1.77-.08-2.1-.91h0c-.25-.62-.08-1.33,.41-1.78l11.92-12.59-13.69-27.71"/><path class="au" d="M471.38,456.93c-.09-1.22,.06-2.7,.59-3.23l12.82-12.9c9.93,.03,19.93-7.06,19.93-7.06l5.53,11.33c.15,.39-.04,.82-.42,.98l-36.69,14.51c-.76,.3-1.76-3.59-1.76-3.63Z"/><path class="l" d="M481.7,442.81c1.32,.78,2.55,1.72,3.66,2.79"/><path class="l" d="M480.21,444.76c1.4,.88,2.05,1.46,3.05,2.4"/><path class="l" d="M478.91,446.27c.94,.58,2,1.47,2.83,2.19"/></g><line class="l" x1="509.31" y1="443.32" x2="471.7" y2="458.2"/><path class="l" d="M506.73,437.87s-8.67,3.55-7.25,9.34"/><path class="l" d="M474.59,451.05s3.93,2.55,5.09,3.99"/></g><path class="au" d="M472.5,319.13c-13.47,33.11-13.71,36.61-15.93,52.77-2.28,16.58,22.63,65.39,22.63,65.39l23.9-10.55s-15.85-44.66-14.83-52.34c1.89-14.13,18.19-38.23,18.19-38.23,0,0,7.74-6.13,9.43-14.27,1.68-8.14-2.02-16.67-2.02-16.67"/><path class="l" d="M497.08,323.03c.35-.12,10.73-3.38,10.73-3.38"/><line class="l" x1="519.96" y1="316.61" x2="523.38" y2="315.53"/><path class="l" d="M480.5,318.13s-16.65,36.19-18.93,52.77c-2.28,16.58,21.95,64.03,21.95,64.03"/><path class="l" d="M493.82,358.48c5.17-11.38,12.65-22.32,12.65-22.32,0,0,7.74-6.13,9.43-14.27"/></g><g><path class="al" d="M470.24,237.2l6.85,11.93s-4.11,8.89-15.21,4.67l-2.85-6.3,11.2-10.3Z"/><path class="al" d="M452.03,229.13s-3.37,15.86,2.5,18.69c3.05,1.47,11.59,.56,13.61-2.69,1.5-2.42,.91-13.85-.92-15.24-7-5.3-15.19-.75-15.19-.75Z"/><path class="at" d="M466.9,224.43c-2.57-4.48-7.79-3.59-16.29,1.25-1.14,.65-3.61,.88-3.64,2.19-.04,1.72,1.2,4.55,3.19,5.12,1.33,.38,2.03,.26,3.38-.06,1.77-.41,4.13,.3,4.1,2.38,0,.54-.17,1.54,.34,1.74,.26,.1,.92,.02,1.2,.03,.8,.03,1.23,1,1.13,1.79-.1,.79,.4,1.37,.3,2.16-.24,1.87,2.15,3.92,4.03,4.07,1.66,.13,6.52-.68,8.82-3.81,2-2.71,1.74-7.29-1.59-14.11-1.28-2.61-4.08-3.41-4.97-2.75Z"/><path class="al" d="M457.48,237.76c.54-2.54,1.85-2.82,2.99-2.13,1.51,.92,1.18,4.54,.62,5.41-1.13,1.76-2.49,2.3-3.25,1.05"/><path class="a`" d="M459.57,248.48c1.75-1.45,1.49-4.23,1.49-4.23"/><path class="ax" d="M452.54,236.71c-.24,.55-.32,1.36,.13,1.71,.13,.1,.28,.1,.42,.01,.88-.55-.04-2.86-.55-1.72Z"/><path class="o" d="M451.82,234.96c.68-.08,1.87-.02,2.58,.54"/><path class="ah" d="M454.75,242.55l-2.56-.09s-.1,3.15,1.1,3.21c1.33,.07,1.46-3.12,1.46-3.12Z"/></g><g><path class="ap" d="M475.51,246.37s5.97-1.53,14.42,.93c7.13,2.08,16.2,7.42,23.03,14.68,11.82,12.57,6.37,43.82,6.37,43.82l-15.37-.58s2.41-20.08-5.64-28.13-19.41-9.94-19.41-9.94"/><path class="al" d="M410.29,290.26c-4.82,1.34-19.41,2.92-19.64,3.92-.23,1,4.91,.51,4.56,1.29-.35,.78-8.2,2.07-8.17,3.13,.04,1.43,8.02-.32,8.02-.32,0,0-3.31,.59-2.92,1.83,.28,.87,1.63,1.14,4.25,.89-1.44,.32-2,1.02-1.69,1.92,.31,.89,1.7,.83,3.18,.64-1.02,.23-1.8,.9-1.14,1.49,.86,.77,6.81,.44,17.36-1.35"/><path class="ap" d="M460.32,250.36s4.11,1.77,8.66,0c4.55-1.77,6.52-3.99,6.52-3.99,0,0,10.33-.71,22.91,11.87,12.7,12.7,22.58,48.73,22.58,48.73l-52.06,17.5s-8.9-31.54-12.41-45.9c-3.5-14.36,3.8-28.2,3.8-28.2Z"/><path class="n" d="M497.73,254.93c10.41,12.15,23.26,52.03,23.26,52.03"/><path class="ap" d="M460.32,250.36c-6.86,2.63-12.75,9.28-16.36,16.14-5.92,11.23-9.53,19.38-9.53,19.38l-29.85,4.47,1.48,15.92s20.26-.6,36.42-3.03c11.48-1.73,20.36-25.51,20.36-25.51"/><path class="n" d="M458.31,251.26s3.3,4.41,11.22,1.44c7.92-2.97,8.2-6.64,8.2-6.64"/><line class="n" x1="459.03" y1="285.91" x2="462.28" y2="279.06"/><line class="n" x1="409.25" y1="289.65" x2="410.37" y2="306.05"/><line class="n" x1="467.97" y1="321.06" x2="519.96" y2="303.87"/></g></g><g><path class="al" d="M263.21,277.48c.23,.16,.47,.31,.71,.46,2.33,1.48,4.71,2.97,7.35,3.75,1.54,.45,3.21,.69,4.46,1.69,.51,.4,.94,.83,1.5,1.16,.15,.09,1.62,.64,1.56,.48,.22,.53,.8,.79,1.33,1,.06,.02,.13,.05,.19,.04s.12-.08,.1-.14c.19,.37,.86,.54,1.08,.33,.21-.2-.32-1.14-.32-1.14,0,0,.36,.02,.47-.09,.17-.2,.21-.47,.23-.73,.16-2.41-.78-4.87-2.53-6.58"/><path class="ac" d="M279.83,282.46c0,.41,.24,.83,.4,1.21,.17,.41,.35,.81,.56,1.2,.1,.18,.35,.05,.31-.13-.09-.47-.25-.9-.46-1.34-.17-.36-.35-.78-.69-1-.05-.04-.12,.01-.12,.07h0Z"/><path class="ac" d="M277.32,282.54c.89,.97,1.78,1.89,2.56,2.95,.08,.11,.29,.05,.24-.1-.38-1.31-1.69-2.11-2.63-3.02-.11-.11-.28,.06-.17,.17h0Z"/><g><line class="r" x1="261.21" y1="461.22" x2="243.44" y2="279.87"/><polyline class="r" points="330.38 461.22 312.62 279.87 243.44 279.87"/><line class="r" x1="294.85" y1="461.22" x2="312.62" y2="279.87"/><polyline class="r" points="225.67 461.22 243.44 279.87 312.62 279.87"/><line class="r" x1="327.54" y1="435.53" x2="228.19" y2="435.53"/><line class="r" x1="325.23" y1="413.32" x2="230.37" y2="413.32"/><line class="r" x1="323.46" y1="390.5" x2="232.6" y2="390.5"/><line class="r" x1="321.24" y1="368.76" x2="234.73" y2="368.76"/><line class="r" x1="319.1" y1="346.04" x2="236.86" y2="346.04"/><line class="r" x1="316.89" y1="323.52" x2="239.09" y2="323.52"/><line class="r" x1="314.31" y1="302.26" x2="241.25" y2="302.26"/></g><path class="al" d="M259.35,279.41c7.1,.02,14.2,0,21.29-.05-.67-1.2-1.09-1.95-1.85-2.71-.94-.93-1.66-1.48-2.64-1.98-3.3-1.69-7-2.6-10.71-2.64"/><path class="aq" d="M234.57,230.48s9.71,25.31,12.13,27.43c2.43,2.12,25.55,13.62,25.55,13.62l-7.09,15s-27.82-11.11-31.81-15c-3.99-3.89-16.67-18.95-17.94-34.06"/><g><g><g><path class="al" d="M216.03,395.88l-1,27.23,.84,8.57h32.48c.82-.01,1.48-.68,1.48-1.5h0c0-.61-.38-1.17-.95-1.39l-14.45-6.73,2.33-28.33"/><path class="ad" d="M251.3,431.33c-.34-1.08-.96-2.29-1.6-2.57l-15.33-6.69c-8.48,3.39-19.43,.71-19.43,.71l-.9,11.56c0,.38,.31,.69,.69,.69h36.28c.75-.01,.29-3.68,.28-3.71Z"/><path class="m" d="M237.7,422.75c-.87,1.12-1.6,2.34-2.18,3.63"/><path class="m" d="M239.63,423.92c-.9,1.23-1.26,1.94-1.8,3.08"/><path class="m" d="M241.26,424.77c-.61,.81-1.21,1.93-1.68,2.83"/></g><line class="m" x1="214.26" y1="432.54" x2="251.46" y2="432.53"/><path class="m" d="M214.62,427.01s8.61,.1,9.36,5.53"/><path class="m" d="M246.57,427.4s-2.5,3.51-3,5.14"/></g><path class="ap" d="M208.86,293.5s-3.13,13.88,3.6,30.7c0,0,3.26,17.58,3.52,37.68,.27,20.5-2.46,46.62-2.46,56.38h26.72s3.28-27.78,3.57-55.78c.33-31.36-2.33-66.76-2.33-75.9"/><path class="n" d="M236.24,418.26s3.28-28.29,3.58-56.65c.32-31.15-2.34-65.98-2.34-75.04"/><g><g><path class="al" d="M261.2,373.72l-1,27.24,.84,8.57h32.48c.82-.01,1.48-.68,1.48-1.5h0c0-.61-.38-1.17-.95-1.39l-14.45-6.73,2.33-28.33"/><path class="ad" d="M296.47,409.17c-.34-1.08-.96-2.29-1.6-2.57l-15.33-6.69c-8.48,3.39-19.43,.71-19.43,.71l-.9,11.56c0,.38,.31,.69,.69,.69h36.28c.75-.01,.29-3.68,.28-3.71Z"/><path class="m" d="M282.87,400.59c-.87,1.12-1.6,2.34-2.18,3.63"/><path class="m" d="M284.8,401.75c-.9,1.23-1.26,1.94-1.8,3.08"/><path class="m" d="M286.43,402.61c-.61,.81-1.21,1.93-1.68,2.83"/></g><line class="m" x1="259.43" y1="410.38" x2="296.63" y2="410.36"/><path class="m" d="M259.79,404.85s8.61,.1,9.36,5.53"/><path class="m" d="M291.74,405.23s-2.5,3.51-3,5.14"/></g><path class="ap" d="M253.87,295.02s25.67,24.33,31.46,40.18c4.03,11.05-1.83,61.47-1.83,61.47h-25.57s3.12-45.9,1.5-50.64c-1.9-5.57-23.91-24.56-23.91-24.56,0,0-9.39-2.1-13.82-12.09-3.99-9-2.15-19.92-2.15-19.92"/><path class="n" d="M247.87,295.02s26.61,28.13,31.46,40.18c3.68,9.15-1.83,61.47-1.83,61.47"/><path class="n" d="M243.26,328.4c-2.02-1.83-5.51-4.97-6.57-5.91-.68-.6-1.46-1.07-2.32-1.37-2.64-.92-9.19-3.9-12.67-11.74"/><path class="n" d="M228.77,303.78s7.66,.27,10.86,0"/><line class="n" x1="208.13" y1="303.78" x2="214.31" y2="303.78"/></g><g><path class="al" d="M299.75,233.4c2.68-1.22,14.9-6.57,15.19-5.83,.28,.71-3.59,3.29-3.16,3.41,.24,.07,3.69-.83,5.42-1.68,1.54-.76,4.14-1.72,4.56-1.09,.79,1.19-7.72,5.24-7.72,5.24,0,0,1.5-.69,2.27,.24,1.1,1.34-1.23,2.58-1.23,2.58,0,0,1.34-.68,1.78,.48,.46,1.2-1.54,2.18-1.54,2.18,0,0,1.59-.76,1.79,.69,.26,1.91-12.44,6.39-12.44,6.39"/><path class="ad" d="M237.84,221.04s-2.55,2.03-6.63,1.33c-4.08-.69-5.07-2.66-5.07-2.66,0,0-10.85,1.51-16.06,34.96-3.66,23.5-2.45,42.62-2.45,42.62h49.45s1.51-51.11-1-60.61"/><path class="ad" d="M241.73,245.63s14.65,16.18,28.32,16.18,39.4-14.51,39.4-14.51l-6.15-16.87-29.9,10.72s-15.74-14.71-23.01-17.42c-7.26-2.71-12.56-2.69-12.56-2.69"/><path class="m" d="M257.48,258.09s-9.2-7.02-13.64-10.31"/><line class="m" x1="300.44" y1="231.46" x2="306.07" y2="249.12"/><line class="m" x1="207.48" y1="293.18" x2="257.19" y2="293.18"/><path class="m" d="M248.75,251.46c.48,14.22,0,45.83,0,45.83"/></g><g><path class="al" d="M226.32,212.42l-1.12,9.03s8.71,4.57,14.49-.29v-5.26l-13.37-3.47Z"/><path class="al" d="M238.14,198.26s10.18,12.84,6.46,17.59c-1.93,2.47-8.25,1.88-11.26,0-2.23-1.4-8.47-8.84-7.51-10.75,3.64-7.27,12.31-6.85,12.31-6.85Z"/><path class="ay" d="M236.83,200.61c.17,5.2-.5,9.85-.5,9.85l-.78,16.89s-13.44,1.43-22.03-4.54c0,0,2.88-17.75,9.29-23.13,6.09-5.12,14.02-4.75,18.05-1.44,0,0-.56,1.55-1.31,1.91-.75,.36-2.72,.45-2.72,.45"/><path class="al" d="M237.71,208.76c-1.24-1.58-2.25-1.33-2.8-.46-.73,1.15,.74,3.55,1.42,3.96,1.39,.83,2.51,.74,2.62-.38"/><path class="a`" d="M239.8,217.43c-1.47,0-1.94-1.23-1.94-1.23"/><path class="ax" d="M240.82,204.77c.43,.35,.83,1,.59,1.47-.07,.13-.2,.2-.34,.18-.96-.09-1.14-2.4-.25-1.66Z"/><path class="k" d="M240.7,203.02c-.96,0-1.56,.75-1.92,1.51"/><path class="ah" d="M241.6,211.4l2.26-.73s.89,2.78-.17,3.14c-1.17,.4-2.1-2.41-2.1-2.41Z"/><path class="ay" d="M229.27,196.66c.9-.23,1.52-1.17,1.5-2.09-.03-.93-.63-1.79-1.45-2.22-.82-.44-1.81-.48-2.7-.23-.34,.09-.67,.23-.96,.44-1.16,.86-1.13,2.71-.31,3.9,.34,.48,.8,.91,1.38,1.04,.57,.13,1.76-.07,2.44-.47"/></g><path class="al" d="M241.9,204.62c.25,.14,2.94,1.3,2.95,2.38,.01,.61-1.48,1.27-1.48,1.27"/><path class="al" d="M277.16,277.29c1.6,1.72,2.13,3.42,2.78,4.81,.03,.06,.06,.13,.06,.2,0,.32-.47,.35-.77,.23-.68-.26-1.31-.63-1.87-1.11-.22-.19-.43-.39-.68-.54-.46-.26-1-.29-1.53-.36-2.15-.27-4.31-1.33-5.36-3.23"/><path class="af" d="M277.16,277.29c1.1,1.02,1.89,2.34,2.5,3.7l.47,1c.03,.12,.11,.23,.08,.4-.03,.18-.2,.32-.32,.36-.26,.09-.47,.06-.7,0-.74-.27-1.41-.66-2-1.16-.29-.26-.52-.49-.83-.61-.3-.12-.66-.17-1.03-.22-.75-.09-1.5-.26-2.21-.55-1.4-.56-2.69-1.56-3.32-2.93,.81,1.26,2.09,2.1,3.46,2.57,.69,.22,1.4,.39,2.12,.46,.37,.04,.76,.08,1.15,.22,.4,.15,.71,.45,.98,.67,.53,.47,1.16,.85,1.82,1.1,.13,.05,.3,.06,.4,.02,.05-.02,.05-.03,.05-.03,0-.01-.03-.08-.04-.13-.16-.34-.29-.69-.43-1.03-.54-1.38-1.2-2.7-2.15-3.85Z"/></g><g><g><g><g><path class="al" d="M106.83,420.18l-.9,28.54,.93,8.98,34.03-.18c.86,0,1.55-.7,1.55-1.56h0c0-.64-.4-1.22-1-1.45l-15.18-6.98,2.29-29.7"/><path class="av" d="M143.96,457.14c-.36-1.13-1.02-2.39-1.69-2.68l-16.1-6.93c-8.87,3.6-20.36,.85-20.36,.85l-.88,12.12c0,.4,.33,.72,.73,.72l38.02-.2c.79,0,.28-3.84,.27-3.88Z"/><path class="p" d="M129.67,448.22c-.9,1.18-1.66,2.46-2.27,3.81"/><path class="p" d="M131.69,449.44c-.93,1.29-1.31,2.04-1.87,3.24"/><path class="p" d="M133.41,450.32c-.63,.85-1.26,2.03-1.75,2.97"/></g><line class="p" x1="105.16" y1="458.6" x2="144.13" y2="458.4"/><path class="p" d="M105.51,452.8s9.03,.06,9.84,5.74"/><path class="p" d="M138.98,453.04s-2.6,3.7-3.11,5.4"/></g><path class="ap" d="M109.98,318.04s18.08,33.89,23.82,55.21c5.74,21.31-1.89,69.32-1.89,69.32h-28.14s5.61-52.1-1.03-69.32c-6.64-17.22-30.42-62.52-30.42-62.52"/><path class="n" d="M107.62,442.57s4.61-54.2,1.81-67.59c-2.81-13.39-22.26-44.55-22.26-44.55"/><g><g><path class="al" d="M74.59,404.31l-16.63,22.92-4.53,7.81,27.62,19.87c.7,.5,1.67,.34,2.17-.35h0c.38-.52,.39-1.22,.04-1.76l-8.17-14.57,18.43-24.04"/><path class="av" d="M83.77,456.42c.37-1.12,.58-2.54,.21-3.16l-8.94-15.07c-9.29-2.31-16.96-11.29-16.96-11.29l-7.84,9.28c-.23,.33-.16,.78,.17,1.01l30.86,22.2c.64,.46,2.49-2.94,2.5-2.98Z"/><path class="p" d="M77.45,440.8c-1.42,.42-2.79,1.01-4.08,1.75"/><path class="p" d="M78.38,442.97c-1.52,.5-2.26,.88-3.41,1.52"/><path class="p" d="M79.24,444.69c-1.01,.32-2.21,.9-3.16,1.38"/></g><line class="p" x1="51.52" y1="434.77" x2="83.16" y2="457.53"/><path class="p" d="M55.22,430.29s7.26,5.36,4.58,10.43"/><path class="p" d="M82.15,450.17s-4.28,1.46-5.69,2.53"/></g><path class="ap" d="M64.9,310.73c-5.36,15.19,0,27.14,0,27.14,0,0,18.27,33.39,18.27,40.17,0,6.22-23.44,41.68-23.44,41.68l21.43,17.23s33.66-36.23,33.03-61.3c-.79-31-17.66-64.92-17.66-64.92"/><path class="n" d="M68.9,311.73c-5.36,15.19,1.11,25.42,1.11,25.42,0,0,17.16,35.11,17.16,41.89,0,6.22-24.35,43.16-24.35,43.16"/><path class="n" d="M105.66,403.13c5.02-9.21,8.74-18.99,8.52-27.49-.79-31-17.66-64.92-17.66-64.92"/><path class="n" d="M67.14,323.64s9.56,.56,13.31-7.13"/><path class="n" d="M103.79,328.02s2.62,.29,2.37-1.01-2.37-8.28-2.37-8.28"/></g><g><path class="ak" d="M115.94,230.16c.98,6.12,.21,11.53-5.02,12.35-5.23,.81-12.49-.68-13.91-9.4-1-6.12,2.46-11.75,7.69-12.56,5.23-.81,10.26,3.49,11.24,9.62Z"/><path class="ax" d="M111.71,230.21c-.11,.56,0,1.34,.49,1.56,.14,.06,.29,.03,.39-.08,.7-.7-.66-2.66-.88-1.48Z"/><path class="y" d="M109.96,228.83c1.29-.7,2.52-.63,3.61-.25"/><path class="ah" d="M115.1,236.56h-3.41s-.2,2.84,1.49,3.14c1.42,.24,1.92-3.14,1.92-3.14Z"/><path class="ak" d="M108.15,249.21s-4.07,.7-7.9-.34c-4.52-1.23-5.8-3.07-5.8-3.07l6.26-13.07,9.66,4.38-2.22,12.1Z"/><path class="u" d="M109.35,242.66s-4.21,.14-6.39-1.93"/><path class="ak" d="M114.83,229.97s2.61,3.84,2.48,4.52c-.13,.69-2.03,.98-2.03,.98"/><path class="as" d="M100.76,238.63c-.57,.25-1.25,.35-1.8,.41-1.23,.14-2.5-.05-3.6-.62-2.01-1.05-3.3-3.44-2.85-5.67,.07-.36,.19-.72,.25-1.09,.27-1.71-.73-3.34-1.01-5.05-.27-1.66,.16-3.4,1.1-4.8,.93-1.4,2.34-2.45,3.91-3.05,1.25-.48,2.62-.65,3.66-1.55,.48-.42,.92-.89,1.47-1.23,2.6-1.64,6.31-.74,8.63,.99,.28,.2,.55,.43,.88,.52,.57,.15,1.17-.09,1.75,.03,2.23,.45,3.21,3.74,3.19,5.71,0,.58-.15,1.18-.5,1.64-.5,.67-1.35,.99-2.18,1.09-1.16,.14-2.36-.09-3.5,.25-.8,.24-1.48,.76-2.26,1.07-1.19,.48-2.59,.43-3.75-.12,.23,.81,.4,1.67,.28,2.51-.24,1.57-1.57,2.35-2.98,2.74,.47,1.59,.85,3.58,.35,5.2-.15,.5-.55,.82-1.04,1.03Z"/><path class="aj" d="M102.7,231.12s-1.25-1.52-2.72-.3c-1.9,1.58,.57,4.99,2.08,5.55,1.5,.56,1.95-1.11,1.95-1.11"/></g><g><path class="ap" d="M173.75,297.79c1.98-1.67,3.8-3.58,5.4-5.75,1.6-2.17,2.9-4.47,3.91-6.85l-6.33-3.38c.88-2.23,1.45-4.54,1.7-6.87l7.18-.03c.45-5.27-.35-10.59-2.33-15.5l-6.87,2.08c-.93-2.15-2.14-4.19-3.64-6.06l5.05-5.09c-1.67-1.98-3.58-3.8-5.75-5.4-2.17-1.6-4.47-2.9-6.85-3.91l-3.38,6.33c-2.23-.88-4.54-1.44-6.87-1.7l-.03-7.18c-5.27-.45-10.59,.35-15.5,2.33l2.08,6.87c-2.15,.93-4.19,2.14-6.06,3.64l-5.09-5.05c-1.98,1.67-3.8,3.58-5.4,5.75-1.6,2.17-2.9,4.47-3.91,6.85l6.33,3.38c-.88,2.23-1.45,4.54-1.7,6.87l-7.18,.03c-.45,5.27,.35,10.59,2.33,15.5l6.87-2.08c.93,2.15,2.14,4.19,3.64,6.06l-5.05,5.09c1.67,1.98,3.58,3.8,5.75,5.4s4.47,2.9,6.85,3.91l3.38-6.33c2.23,.88,4.54,1.45,6.87,1.7l.03,7.18c5.27,.45,10.59-.35,15.5-2.33l-2.08-6.87c2.15-.93,4.19-2.14,6.06-3.64l5.09,5.05Zm-29.24-15.54c-5.64-4.17-6.84-12.12-2.67-17.76,4.17-5.64,12.12-6.84,17.76-2.67,5.64,4.17,6.84,12.12,2.67,17.76-4.17,5.64-12.12,6.84-17.76,2.67Z"/><path class="al" d="M153.96,296.24c2.94,.25,16.21,1.6,16.09,2.39-.11,.76-4.6,1.01-4.43,1.42,.24,.58,3.62,1.09,5.55,1.2,1.71,.1,4.45,.54,4.5,1.29,.1,1.43-9.3,.77-9.3,.77,.03,.43,10.24-1.18,10.45,0,.3,1.71-10.58,2.55-10.93,2.96,0,0,9.23-3.35,9.46-2.08,.22,1.27-7.95,4.46-10.55,4.51,2.13-.44,8.41-3.98,8.57-3.05,.16,.92-5.39,3.33-6.29,3.48-7.43,1.23-15.03,.5-15.03,.5"/><path class="au" d="M108.31,248.37s-2.85,1.35-7.17-.52c-4.69-2.04-5.68-4.38-5.68-4.38,0,0-25.44,2.25-34.74,72.83l52.09,6.46s4.19-25.23,3.52-45.64c-.43-13-5.48-23.11-8.03-28.75"/><path class="au" d="M93.03,276.63s8.01,26.84,29.65,32.65c19.28,5.17,34.31,5.15,34.31,5.15l2.1-18.09s-23.56-4.23-33.26-10.64c-7.38-4.88-8.82-20.53-10.69-26.06-2.59-7.68-6.83-11.25-6.83-11.25"/><path class="l" d="M93.39,244.02s1.6,4.92,9.02,6.54c5.42,1.18,7.55-.44,7.55-.44"/><path class="l" d="M114.18,306.23s-19.73-9.11-20.79-34.93"/><line class="l" x1="154.71" y1="295.45" x2="152.06" y2="314.21"/></g></g></g></g></svg>