<svg xmlns="http://www.w3.org/2000/svg" viewBox="0 0 172 172"><defs><style>.cls-1{fill:#fff;}.cls-2{fill:#ebebeb;}.cls-3{fill:#dfdfdf;}.cls-4{fill:#b8b8b8;opacity:0.2;}</style></defs><g id="레이어_2" data-name="레이어 2"><g id="Artboard_2" data-name="Artboard 2"><circle class="cls-1" cx="86" cy="86" r="86" transform="translate(-35.62 86) rotate(-45)"/><circle class="cls-2" cx="90.52" cy="132.71" r="15.89" transform="translate(-64.09 89.1) rotate(-39.95)"/><path class="cls-3" d="M75.84,134.19a15.88,15.88,0,0,1,27.54-10.8,15.88,15.88,0,1,0-24.5,20.11A15.81,15.81,0,0,1,75.84,134.19Z"/><circle class="cls-2" cx="35.67" cy="70.69" r="21.92" transform="translate(-37.14 101.79) rotate(-86.36)"/><path class="cls-3" d="M15.42,72.72a21.9,21.9,0,0,1,38-14.88A21.9,21.9,0,1,0,19.61,85.57,21.8,21.8,0,0,1,15.42,72.72Z"/><circle class="cls-2" cx="130.78" cy="40.22" r="9.32"/><path class="cls-3" d="M122.17,41.08a9.31,9.31,0,0,1,16.15-6.33A9.31,9.31,0,1,0,124,46.55,9.25,9.25,0,0,1,122.17,41.08Z"/><circle class="cls-2" cx="77.04" cy="22.48" r="11.58" transform="translate(37.38 92.25) rotate(-76.65)"/><path class="cls-3" d="M66.34,23.56a11.57,11.57,0,0,1,20.07-7.87A11.57,11.57,0,1,0,68.55,30.35,11.56,11.56,0,0,1,66.34,23.56Z"/><path class="cls-2" d="M8.33,91.42A5.42,5.42,0,1,1,13.75,86,5.42,5.42,0,0,1,8.33,91.42Z"/><path class="cls-3" d="M3.33,86.5a5.41,5.41,0,0,1,9.38-3.67,5.41,5.41,0,1,0-8.35,6.85A5.37,5.37,0,0,1,3.33,86.5Z"/><path class="cls-2" d="M38.47,46.55a2.71,2.71,0,1,1,2.71-2.71A2.72,2.72,0,0,1,38.47,46.55Z"/><path class="cls-3" d="M36,44.09a2.7,2.7,0,0,1,4.69-1.84,2.71,2.71,0,1,0-4.17,3.43A2.68,2.68,0,0,1,36,44.09Z"/><path class="cls-2" d="M19.46,96.83a2.71,2.71,0,1,1,2.71-2.7A2.71,2.71,0,0,1,19.46,96.83Z"/><path class="cls-3" d="M17,94.38a2.71,2.71,0,0,1,2.71-2.71,2.67,2.67,0,0,1,2,.87,2.68,2.68,0,0,0-2.19-1.12,2.71,2.71,0,0,0-2.71,2.71A2.67,2.67,0,0,0,17.48,96,2.69,2.69,0,0,1,17,94.38Z"/><path class="cls-2" d="M111.87,130.77a2.71,2.71,0,1,1,2.71-2.71A2.71,2.71,0,0,1,111.87,130.77Z"/><path class="cls-3" d="M109.37,128.31a2.7,2.7,0,0,1,4.69-1.84,2.71,2.71,0,1,0-4.17,3.43A2.68,2.68,0,0,1,109.37,128.31Z"/><path class="cls-2" d="M129.89,56.09a2.71,2.71,0,1,1,2.7-2.7A2.7,2.7,0,0,1,129.89,56.09Z"/><path class="cls-3" d="M127.39,53.64a2.7,2.7,0,0,1,4.69-1.84,2.71,2.71,0,1,0-4.18,3.43A2.74,2.74,0,0,1,127.39,53.64Z"/><path class="cls-2" d="M121.46,156a5.42,5.42,0,1,1,5.41-5.42A5.41,5.41,0,0,1,121.46,156Z"/><path class="cls-3" d="M116.45,151.08a5.41,5.41,0,0,1,9.39-3.68,5.41,5.41,0,1,0-8.35,6.85A5.35,5.35,0,0,1,116.45,151.08Z"/><circle class="cls-2" cx="112.71" cy="113.1" r="8.75"/><path class="cls-3" d="M104.62,113.91A8.74,8.74,0,0,1,119.78,108,8.74,8.74,0,1,0,106.3,119,8.68,8.68,0,0,1,104.62,113.91Z"/><circle class="cls-2" cx="58.75" cy="136.41" r="8.75"/><path class="cls-3" d="M50.67,137.22a8.74,8.74,0,0,1,15.16-5.94,8.74,8.74,0,1,0-13.49,11.07A8.67,8.67,0,0,1,50.67,137.22Z"/><path class="cls-4" d="M67,138.87A104.38,104.38,0,0,1,6.77,119.49,86,86,0,0,0,168.56,61.9,104.86,104.86,0,0,1,67,138.87Z"/><path class="cls-4" d="M74.15,154.34a104.32,104.32,0,0,1-57.51-17.5,86,86,0,0,0,155.3-48.31A104.85,104.85,0,0,1,74.15,154.34Z"/></g></g></svg>